<?xml version="1.0" encoding="UTF-8" standalone="no"?>
<svg
   width="32"
   height="32"
   viewBox="0 0 24 24"
   version="1.1"
   id="svg4"
   sodipodi:docname="icon.svg"
   inkscape:version="1.2.1 (9c6d41e410, 2022-07-14, custom)"
   xmlns:inkscape="http://www.inkscape.org/namespaces/inkscape"
   xmlns:sodipodi="http://sodipodi.sourceforge.net/DTD/sodipodi-0.dtd"
   xmlns="http://www.w3.org/2000/svg"
   xmlns:svg="http://www.w3.org/2000/svg">
  <defs
     id="defs8" />
  <sodipodi:namedview
     id="namedview6"
     pagecolor="#ffffff"
     bordercolor="#000000"
     borderopacity="0.25"
     inkscape:showpageshadow="2"
     inkscape:pageopacity="0.0"
     inkscape:pagecheckerboard="0"
     inkscape:deskcolor="#d1d1d1"
     showgrid="false"
     inkscape:zoom="27.25"
     inkscape:cx="16.018349"
     inkscape:cy="16"
     inkscape:window-width="1920"
     inkscape:window-height="1052"
     inkscape:window-x="1920"
     inkscape:window-y="28"
     inkscape:window-maximized="1"
     inkscape:current-layer="svg4" />
  <path
     fill="#888888"
     d="m10.29 10.13l-4.38.37l3.32 2.88l-.99 4.28L12 15.39l.76.46c-.26.48-.44 1-.57 1.54l-.19-.12L5.82 21l1.63-7.03L2 9.24l7.19-.61L12 2l2.81 6.63l7.19.61L18.8 12a6.98 6.98 0 0 0-4.02 1.43l-.01-.05l3.32-2.88l-4.38-.37L12 6.09l-1.71 4.04m13.54 10.51l-1 1.73c-.07.13-.2.13-.33.13l-1.23-.5c-.27.18-.54.34-.84.47l-.19 1.32c-.02.12-.13.21-.24.21h-2c-.14 0-.24-.09-.26-.21l-.19-1.32c-.31-.12-.59-.29-.85-.47l-1.24.5c-.12 0-.25 0-.31-.13l-1-1.73a.26.26 0 0 1 .06-.32l1.06-.82a4.193 4.193 0 0 1 0-1l-1.06-.82a.248.248 0 0 1-.06-.32l1-1.73c.07-.13.2-.13.31-.13l1.24.5c.26-.18.55-.34.85-.47l.19-1.32A.26.26 0 0 1 18 14h2c.11 0 .22.09.23.21l.19 1.32c.31.12.58.29.85.47l1.23-.5c.13 0 .26 0 .32.13l1 1.73c.06.11.03.24-.06.32l-1.06.82c.03.17.04.33.04.5s-.02.33-.04.5l1.07.82c.09.08.12.21.06.32M20.5 19c0-.83-.67-1.5-1.5-1.5s-1.5.67-1.5 1.5s.66 1.5 1.5 1.5c.83 0 1.5-.67 1.5-1.5Z"
     id="path2" />
  <path
     style="fill:#ff7f2a;fill-rule:evenodd;stroke-width:0.0013578"
     d="m 7.8323035,27.798898 c 0.014272,-0.07607 0.4954565,-2.162462 1.0692994,-4.636418 0.5738433,-2.473955 1.0433512,-4.510796 1.0433512,-4.526314 0,-0.01552 -1.6272712,-1.440691 -3.6161578,-3.167052 -1.988887,-1.726361 -3.6031072,-3.138849 -3.5871561,-3.138861 0.088345,-7.3e-5 9.5277998,-0.808239 9.5327478,-0.81616 0.0033,-0.0052 0.838737,-1.9784717 1.856601,-4.3849851 C 15.148854,4.7225941 15.989908,2.7535946 16,2.7535534 c 0.01009,-4.11e-5 0.851166,1.9689245 1.869054,4.3754793 1.017887,2.4065552 1.853062,4.3795363 1.855943,4.3844033 0.0029,0.0049 2.149777,0.191001 4.770879,0.413632 2.621102,0.222631 4.768309,0.408558 4.771571,0.41317 0.0033,0.0046 -0.942799,0.825817 -2.102357,1.8249 -1.99566,1.719473 -2.116421,1.816973 -2.260542,1.825112 -1.658415,0.09365 -3.268869,0.610342 -4.606329,1.477869 -0.189191,0.122716 -0.349878,0.217225 -0.357083,0.21002 -0.0072,-0.0072 0.937991,-0.837734 2.100436,-1.84562 L 24.155108,14 23.958288,13.97373 c -0.108251,-0.01445 -1.410582,-0.126892 -2.894068,-0.249869 -1.483486,-0.122977 -2.714986,-0.229246 -2.736666,-0.236152 -0.02168,-0.0069 -0.550012,-1.219696 -1.174073,-2.695086 -0.62406,-1.47539 -1.143182,-2.6825273 -1.153602,-2.6825273 -0.01042,0 -0.530711,1.2105795 -1.156202,2.6901773 l -1.137255,2.690176 -2.752294,0.230629 C 9.440367,13.84792 8.121967,13.962569 8.0243508,13.975851 L 7.8468672,14 10.069446,15.926606 c 1.569647,1.360622 2.21728,1.943613 2.204542,1.984499 -0.0565,0.181334 -1.300301,5.625273 -1.288038,5.637536 0.0081,0.0081 1.139408,-0.664273 2.513932,-1.494248 l 2.499135,-1.509045 0.493316,0.296835 0.493316,0.296836 -0.181205,0.379337 c -0.176822,0.370159 -0.478637,1.22437 -0.530137,1.500413 l -0.02575,0.138035 -0.124453,-0.07692 -0.124452,-0.07692 -4.064045,2.44965 c -2.2352252,1.347308 -4.0787162,2.457513 -4.0966476,2.467122 -0.018397,0.0099 -0.021297,-0.04279 -0.00665,-0.120846 z"
     id="path306"
     transform="scale(0.75)" />
  <path
     style="fill:#d45500;fill-rule:evenodd;stroke-width:0.0013578"
     d="m 23.899273,31.958993 c -0.06549,-0.01891 -0.142408,-0.07109 -0.170927,-0.115956 -0.02852,-0.04486 -0.103556,-0.444872 -0.166749,-0.888909 -0.06319,-0.444036 -0.123529,-0.851401 -0.134081,-0.905254 -0.01549,-0.07907 -0.07115,-0.122591 -0.289119,-0.226105 -0.148463,-0.07051 -0.404483,-0.214501 -0.568931,-0.319991 l -0.298998,-0.191799 -0.832482,0.335675 c -0.457865,0.184622 -0.86886,0.335523 -0.913324,0.335336 -0.199851,-8.36e-4 -0.250436,-0.06893 -0.950188,-1.279059 -0.704177,-1.217781 -0.774414,-1.377959 -0.667342,-1.521895 0.02728,-0.03667 0.362226,-0.309183 0.74433,-0.605587 l 0.694734,-0.538916 0.0024,-0.703061 0.0024,-0.703061 -0.720954,-0.555586 c -0.396525,-0.305573 -0.74025,-0.597937 -0.763834,-0.649698 -0.02358,-0.05176 -0.03231,-0.12743 -0.01938,-0.168154 0.04391,-0.138341 1.37991,-2.430929 1.454253,-2.495505 0.13508,-0.117337 0.307088,-0.07771 1.153665,0.265785 l 0.813333,0.330006 0.308331,-0.192391 c 0.169583,-0.105815 0.426451,-0.24892 0.570818,-0.318011 0.20667,-0.09891 0.266469,-0.145728 0.281222,-0.220184 0.01031,-0.05201 0.06994,-0.457866 0.132521,-0.901902 0.06581,-0.466941 0.136723,-0.842844 0.168189,-0.891547 0.02992,-0.04631 0.0959,-0.09998 0.146617,-0.119266 0.05271,-0.02004 0.687674,-0.03506 1.482273,-0.03506 h 1.39006 l 0.09672,0.0832 c 0.09182,0.07898 0.103468,0.13081 0.229825,1.022666 l 0.133103,0.939468 0.233123,0.10156 c 0.128217,0.05586 0.387197,0.198172 0.57551,0.316253 l 0.342388,0.214695 0.8107,-0.329745 c 0.817285,-0.332424 1.02407,-0.3835 1.149282,-0.283874 0.09753,0.0776 1.460963,2.471735 1.460963,2.565392 0,0.0484 -0.02497,0.123652 -0.05549,0.167223 -0.03052,0.04357 -0.377493,0.328493 -0.771055,0.63316 -0.681057,0.527224 -0.714287,0.55875 -0.689033,0.653715 0.03426,0.128845 0.03399,0.940824 -3.75e-4,1.112114 l -0.0264,0.131603 0.736543,0.562737 c 0.405098,0.309505 0.752128,0.591859 0.771177,0.627452 0.01905,0.03559 0.03454,0.111213 0.03442,0.168045 -2.57e-4,0.125179 -1.30802,2.410384 -1.450435,2.534523 -0.05342,0.04656 -0.143145,0.08257 -0.205757,0.08257 -0.06107,0 -0.476177,-0.148623 -0.922467,-0.330275 -0.44629,-0.181651 -0.824248,-0.330275 -0.839907,-0.330275 -0.01566,0 -0.140453,0.07223 -0.277321,0.160521 -0.136868,0.08829 -0.384782,0.228684 -0.550921,0.311993 -0.217862,0.109246 -0.307161,0.174471 -0.320334,0.233974 -0.01005,0.04538 -0.06867,0.445805 -0.130287,0.889842 -0.06161,0.444037 -0.13214,0.847049 -0.156729,0.895583 -0.08951,0.176675 -0.181171,0.187237 -1.593988,0.183676 -0.722208,-0.0018 -1.366689,-0.01878 -1.432181,-0.0377 z m 1.948641,-4.677679 c 0.340464,-0.08778 0.639523,-0.262204 0.905359,-0.528041 0.626819,-0.626818 0.768959,-1.551333 0.36235,-2.35682 -0.132408,-0.262298 -0.441627,-0.601732 -0.698094,-0.766307 -0.60088,-0.385583 -1.404504,-0.408145 -2.068905,-0.05808 -0.43071,0.226933 -0.807198,0.705609 -0.95714,1.216928 -0.09114,0.310803 -0.08329,0.842251 0.01712,1.15861 0.21162,0.666745 0.779471,1.189897 1.468902,1.353275 0.22152,0.05249 0.730746,0.04223 0.970405,-0.01956 z"
     id="path377"
     transform="scale(0.75)" />
</svg>
